<svg width="21" height="20" viewBox="0 0 21 20" fill="none" xmlns="http://www.w3.org/2000/svg">
<path d="M12 9.12042e-07C13.8299 -0.000872552 15.6049 0.625667 17.0288 1.77513C18.4527 2.92458 19.4395 4.52748 19.8246 6.31647C20.2097 8.10546 19.9699 9.97241 19.145 11.6059C18.3202 13.2395 16.9602 14.5408 15.292 15.293C14.7587 16.4719 13.9475 17.5039 12.9278 18.3004C11.9082 19.097 10.7105 19.6343 9.4376 19.8663C8.16467 20.0984 6.85446 20.0182 5.61933 19.6327C4.3842 19.2472 3.261 18.5678 2.34608 17.6529C1.43115 16.738 0.751797 15.6148 0.366279 14.3796C-0.0192388 13.1445 -0.0994159 11.8343 0.132624 10.5614C0.364663 9.28844 0.901995 8.0908 1.69854 7.07114C2.49508 6.05148 3.52705 5.24024 4.70596 4.707C5.34011 3.30389 6.36555 2.1135 7.65931 1.27861C8.95307 0.443714 10.4602 -0.000237065 12 9.12042e-07ZM7.99996 6C7.21203 6 6.43182 6.1552 5.70386 6.45672C4.97591 6.75825 4.31447 7.20021 3.75732 7.75736C3.20017 8.31451 2.75822 8.97595 2.45669 9.7039C2.15516 10.4319 1.99996 11.2121 1.99996 12C1.99996 12.7879 2.15516 13.5681 2.45669 14.2961C2.75822 15.0241 3.20017 15.6855 3.75732 16.2426C4.31447 16.7998 4.97591 17.2417 5.70386 17.5433C6.43182 17.8448 7.21203 18 7.99996 18C9.59126 18 11.1174 17.3679 12.2426 16.2426C13.3678 15.1174 14 13.5913 14 12C14 10.4087 13.3678 8.88258 12.2426 7.75736C11.1174 6.63214 9.59126 6 7.99996 6ZM12 2C11.1526 1.99901 10.3148 2.17794 9.54179 2.52496C8.76879 2.87198 8.07829 3.37918 7.51596 4.013C8.64623 3.94439 9.77818 4.1165 10.837 4.51795C11.8958 4.9194 12.8573 5.54105 13.6579 6.34178C14.4586 7.14252 15.0801 8.1041 15.4814 9.16293C15.8827 10.2218 16.0547 11.3537 15.986 12.484C16.8952 11.6756 17.5372 10.6099 17.8268 9.42831C18.1164 8.24668 18.04 7.00492 17.6076 5.86772C17.1752 4.73053 16.4074 3.75164 15.4059 3.06088C14.4044 2.37013 13.2166 2.00014 12 2Z" fill="#333333"/>
</svg>
