<svg width="14" height="14" viewBox="0 0 14 14" fill="none" xmlns="http://www.w3.org/2000/svg">
<path d="M10.75 12.25H12.25V8.5H5.5V1.75H1.75V3.25H3.25V4.75H1.75V6.25H4V7.75H1.75V9.25H3.25V10.75H1.75V12.25H3.25V10.75H4.75V12.25H6.25V10H7.75V12.25H9.25V10.75H10.75V12.25ZM7 7H13C13.1989 7 13.3897 7.07902 13.5303 7.21967C13.671 7.36032 13.75 7.55109 13.75 7.75V13C13.75 13.1989 13.671 13.3897 13.5303 13.5303C13.3897 13.671 13.1989 13.75 13 13.75H1C0.801088 13.75 0.610322 13.671 0.46967 13.5303C0.329018 13.3897 0.25 13.1989 0.25 13V1C0.25 0.801088 0.329018 0.610322 0.46967 0.46967C0.610322 0.329018 0.801088 0.25 1 0.25H6.25C6.44891 0.25 6.63968 0.329018 6.78033 0.46967C6.92098 0.610322 7 0.801088 7 1V7Z" fill="#999999"/>
</svg>
