<svg width="52" height="32" viewBox="0 0 52 32" fill="none" xmlns="http://www.w3.org/2000/svg">
<path d="M32.0726 15.9378C32.0726 24.7403 24.9917 31.8498 16.2248 31.8498C7.4579 31.8498 0.545532 24.7403 0.545532 15.9378C0.545532 7.1354 7.6265 0.0257568 16.3934 0.0257568C25.1603 0.0257568 32.0726 7.1354 32.0726 15.9378Z" fill="#E2574C"/>
<path d="M35.2766 0.0257568C31.7361 0.0257568 28.5329 1.2107 25.8353 3.24203C26.3412 3.74985 26.8469 4.08841 27.3527 4.59623H24.1495C23.6436 5.10407 23.1378 5.6119 22.8007 6.289H28.5329C29.0386 6.79684 29.3758 7.30466 29.713 7.8125H21.6204C21.2833 8.32033 21.1147 8.82817 20.7775 9.33599H30.556C30.8932 9.84383 31.0618 10.3517 31.2304 10.8595H20.1032C19.9345 11.3673 19.7659 12.0444 19.5973 12.5523H31.5675C31.7361 13.0601 31.7361 13.5679 31.9047 14.0757H19.4287C19.4287 14.5836 19.4287 15.0914 19.4287 15.5992H32.0733C32.0733 16.1071 32.0733 16.6149 31.9047 17.1228H19.4287C19.4287 17.6305 19.5973 18.1383 19.5973 18.6463H31.5675C31.3989 19.1541 31.2304 19.6619 31.0618 20.1697H19.9345C20.1032 20.6776 20.2718 21.1854 20.6089 21.6932H30.3875C30.0501 22.201 29.8816 22.7089 29.5444 23.2167H21.4518C21.789 23.7245 22.1263 24.2323 22.4635 24.7403L28.3643 24.9095C27.8584 25.5866 27.1841 25.9251 26.6783 26.4329C26.6783 26.4329 25.6667 26.4329 23.8121 26.4329C26.6783 29.48 30.7246 31.342 35.1081 31.342C43.8749 31.342 50.956 24.2323 50.956 15.43C50.956 6.62756 44.0435 0.0257568 35.2766 0.0257568Z" fill="#F4B459"/>
</svg>
