<svg width="18" height="18" viewBox="0 0 18 18" fill="none" xmlns="http://www.w3.org/2000/svg">
<path d="M4.32225 12.75H15V3.75H3V13.7887L4.32225 12.75ZM4.84125 14.25L1.5 16.875V3C1.5 2.80109 1.57902 2.61032 1.71967 2.46967C1.86032 2.32902 2.05109 2.25 2.25 2.25H15.75C15.9489 2.25 16.1397 2.32902 16.2803 2.46967C16.421 2.61032 16.5 2.80109 16.5 3V13.5C16.5 13.6989 16.421 13.8897 16.2803 14.0303C16.1397 14.171 15.9489 14.25 15.75 14.25H4.84125ZM8.25 10.5H9.75V12H8.25V10.5ZM6.42525 6.60975C6.52269 6.12209 6.75661 5.67213 7.0998 5.31223C7.44298 4.95233 7.88131 4.69728 8.36378 4.57677C8.84626 4.45625 9.35303 4.47523 9.82514 4.63149C10.2973 4.78774 10.7153 5.07486 11.0306 5.45941C11.3459 5.84397 11.5455 6.31016 11.6062 6.80374C11.6669 7.29732 11.5862 7.79799 11.3735 8.24749C11.1607 8.69699 10.8247 9.07683 10.4046 9.34282C9.98438 9.60882 9.4973 9.75002 9 9.75H8.25V8.25H9C9.21306 8.24999 9.42173 8.18947 9.60174 8.0755C9.78175 7.96152 9.9257 7.79877 10.0168 7.60619C10.108 7.4136 10.1425 7.1991 10.1165 6.98763C10.0905 6.77617 10.005 6.57644 9.86987 6.41168C9.73478 6.24693 9.55568 6.12392 9.35342 6.05698C9.15115 5.99003 8.93403 5.9819 8.72732 6.03353C8.52061 6.08516 8.33281 6.19442 8.18578 6.34861C8.03874 6.5028 7.93851 6.69557 7.89675 6.9045L6.42525 6.60975Z" fill="#333333"/>
</svg>
