<svg width="69" height="22" viewBox="0 0 69 22" fill="none" xmlns="http://www.w3.org/2000/svg">
<path d="M15.6156 11.958C15.4439 12.8085 15.2723 13.6589 15.1008 14.5094H14.4143L14.2428 11.958C14.2428 11.958 13.0416 6.68518 12.3552 3.11328C11.6688 0.221727 11.154 0.221727 9.60957 0.221727C6.34917 0.221727 0 0.221727 0 0.221727V0.90209C3.2604 0.90209 6.00598 3.11328 6.69238 6.1749C8.23676 12.4683 10.296 21.3131 10.296 21.3131H16.6451L26.598 0.0516357H20.592L15.6156 11.958ZM30.2016 21.6532L34.6632 0.391817H28.8287L24.3672 21.6532H30.2016ZM47.3615 11.7879C46.675 10.7674 45.8171 9.91691 44.7875 9.06646C44.101 8.55618 43.4147 8.04592 42.8999 7.36554C42.5566 7.02537 42.385 6.51509 42.385 6.00482C42.385 5.49454 42.5566 5.15437 42.8999 4.81418C43.2431 4.474 43.7579 4.3039 44.2726 4.474C45.8171 4.64409 47.1899 4.98428 48.5626 5.83473L50.6218 1.58245C48.7342 0.561908 46.5034 0.0516357 44.2726 0.0516357C42.8999 0.0516357 41.5271 0.391817 40.3258 0.90209C38.095 1.92264 36.5508 4.13382 36.7223 6.68518C36.7223 7.70573 37.0655 8.89637 37.5803 9.74682C38.2666 10.7674 39.1247 11.7879 40.1542 12.4683C41.0123 13.3187 41.6987 13.829 41.8702 13.9991C42.0418 14.1692 42.2134 14.5094 42.385 14.6795C42.5568 14.8496 42.5566 15.1897 42.5566 15.3598C42.5566 15.8701 42.385 16.3804 42.0418 16.7205C41.5271 17.0607 41.0123 17.2309 40.3258 17.2309C39.2963 17.2309 38.4382 17.0607 37.4087 16.7205C36.3792 16.3804 35.5211 16.0402 34.4916 15.3598V20.4625C35.1779 20.9728 36.0358 21.3131 36.8939 21.4832C37.9234 21.6532 38.9531 21.8233 39.9826 21.8233C42.2134 21.9934 44.2726 21.3129 45.9886 19.9523C48.391 17.9112 48.9059 14.5094 47.3615 11.7879ZM63.1485 21.6532H68.8114L67.0953 0.391817H59.7167L48.5626 21.6532H54.5686L56.4562 17.7411H62.977L63.1485 21.6532ZM61.6043 6.1749C61.9474 5.32445 62.2906 4.64409 62.4622 3.79364C62.4622 4.3039 62.4622 4.98428 62.4622 5.66464V6.85528L62.6338 12.9786H58.3438L61.6043 6.1749Z" fill="#0056AF"/>
</svg>
