<?xml version="1.0" encoding="utf-8"?>
<!-- Generator: Adobe Illustrator 24.1.2, SVG Export Plug-In . SVG Version: 6.00 Build 0)  -->
<svg version="1.1" id="Слой_1" xmlns="http://www.w3.org/2000/svg" xmlns:xlink="http://www.w3.org/1999/xlink" x="0px" y="0px"
	 viewBox="0 0 20 19" style="enable-background:new 0 0 20 19;" xml:space="preserve">
<style type="text/css">
	.st0{fill:#DB2138;}
	.st1{opacity:0;}
</style>
<path class="st0" d="M10,1.5c2.3-2.1,6-2,8.2,0.2c2.3,2.3,2.3,5.9,0.2,8.2L10,18.5L1.5,10c-2.1-2.4-2-6,0.2-8.2
	C4-0.5,7.6-0.6,10,1.5z"/>
<path class="st1" d="M16.8,3.3c-1.5-1.5-3.9-1.6-5.5-0.2L10,4.3L8.7,3.1c-1.6-1.4-4-1.4-5.5,0.2C1.7,4.8,1.6,7.2,3,8.7l7,7l7-7
	C18.4,7.2,18.3,4.8,16.8,3.3z"/>
</svg>
