<svg width="35" height="33" viewBox="0 0 35 33" fill="none" xmlns="http://www.w3.org/2000/svg">
<path d="M11.7359 5.66451C11.7359 5.66451 19.1447 1.39291 21.0401 0.026001C21.9017 0.196865 22.5908 0.538594 23.4522 0.880321L11.9082 8.22748L5.36082 4.29761C6.05002 3.78501 6.73923 3.10156 7.42842 2.58896C8.80683 3.78501 11.7359 5.66451 11.7359 5.66451ZM11.9082 10.4487C11.9082 10.4487 20.8678 4.81019 25.6923 1.56378C26.5537 2.07637 27.2429 2.58896 27.7599 3.27242L11.9082 12.8408L2.25944 7.71488C2.25944 7.71488 3.12092 6.6897 3.63783 5.83538C6.39462 7.37315 11.9082 10.4487 11.9082 10.4487ZM11.9082 15.4038L29.3105 4.98106C30.1721 5.49364 30.8612 6.17711 31.5503 7.03143C25.003 10.9613 11.9082 18.6503 11.9082 18.6503C11.9082 18.6503 3.63783 14.2077 0.364125 12.3282C0.536424 11.4739 0.881016 10.6196 1.22562 9.76525C4.67163 11.4739 11.9082 15.4038 11.9082 15.4038ZM11.9082 21.2132C11.9082 21.2132 26.2091 12.8408 32.5842 8.91093C33.7902 11.1322 34.4795 13.5243 34.4795 16.0872C34.135 25.4848 26.2091 32.8318 16.5603 32.4901C7.60073 32.1484 0.191831 24.9722 0.0195312 16.0872C0.0195312 15.5746 0.0195312 15.062 0.0195312 14.5494C6.05003 17.7958 11.9082 21.2132 11.9082 21.2132Z" fill="#006D24"/>
</svg>
